Coordinates
version=1
nRows=21
nColumns=12
inDegrees=yes

Units are S.I. units (second, meters, Newtons, ...)
Angles are in degrees

endheader
time	SC_y	SC_z	SC_x	AC_y	AC_z	AC_x	GH_y	GH_z	GH_yy	EL_x	PS_y
       0.0              -34.43          16.71          82.06          47.48         0.7809          9.641         -107.4           71.5          132.4          98.35          31.98
    0.0373              -34.43          16.72          82.06          47.48         0.7808           9.64         -107.4           71.5          132.4          98.35          31.98
    0.0746              -34.43          16.72          82.05          47.48         0.7806           9.64         -107.4          71.51          132.4          98.35          31.99
    0.1119              -34.43          16.72          82.04          47.49         0.7805           9.64         -107.3          71.51          132.4          98.35          31.99
    0.1492              -34.43          16.72          82.03          47.49         0.7803           9.64         -107.3          71.51          132.4          98.35           32.0
    0.1865              -34.43          16.72          82.03          47.49         0.7801           9.64         -107.2          71.51          132.3          98.35           32.0
    0.2238              -34.43          16.73          82.02          47.49         0.7799           9.64         -107.2          71.52          132.3          98.36           32.0
    0.2611              -34.43          16.73          82.01          47.49         0.7797           9.64         -107.1          71.52          132.3          98.36          32.01
    0.2984              -34.43          16.73           82.0           47.5         0.7795          9.639         -107.1          71.52          132.3          98.36          32.02
    0.3357              -34.43          16.73          81.99           47.5         0.7793          9.639         -107.0          71.53          132.3          98.36          32.02
     0.373              -34.43          16.74          81.98           47.5         0.7791          9.639         -106.9          71.53          132.3          98.36          32.03
    0.4103              -34.43          16.74          81.97          47.51         0.7788          9.639         -106.9          71.54          132.3          98.36          32.03
    0.4476              -34.44          16.74          81.95          47.51         0.7785          9.639         -106.8          71.54          132.2          98.36          32.04
    0.4849              -34.44          16.75          81.94          47.51         0.7782          9.638         -106.7          71.54          132.2          98.36          32.05
    0.5222              -34.44          16.75          81.92          47.52         0.7779          9.638         -106.6          71.55          132.2          98.36          32.06
    0.5595              -34.44          16.75          81.91          47.52         0.7775          9.638         -106.5          71.56          132.2          98.36          32.07
    0.5968              -34.44          16.76          81.89          47.53         0.7771          9.637         -106.4          71.56          132.2          98.36          32.08
    0.6341              -34.44          16.76          81.87          47.53         0.7767          9.637         -106.3          71.57          132.1          98.37          32.09
    0.6714              -34.44          16.77          81.85          47.54         0.7762          9.637         -106.2          71.58          132.1          98.37           32.1
    0.7087              -34.44          16.77          81.83          47.55         0.7757          9.636         -106.1          71.59          132.1          98.37          32.12
     0.746              -34.44          16.78           81.8          47.56         0.7752          9.636         -105.9          71.59          132.0          98.37          32.13
